<?xml version="1.0" encoding="UTF-8"?><svg xmlns="http://www.w3.org/2000/svg" xmlns:xlink="http://www.w3.org/1999/xlink" viewBox="0 0 147.81 158.78"><defs><style>.bj{fill:url(#ar);}.bj,.bk,.bl,.bm,.bn,.bo,.bp,.bq,.br,.bs,.bt,.bu{opacity:.5;}.bj,.bv,.bw,.bx,.by,.bm,.bo,.c`,.ca,.bq,.br,.bs,.cb,.bu{mix-blend-mode:multiply;}.bk,.cc{fill:#e5f6ff;}.cd{fill:url(#be);}.ce{fill:url(#t);}.bv{fill:url(#bi);}.bv,.bw,.bx,.by,.c`,.ca,.cb{opacity:.3;}.cf,.bn{fill:#fff;}.cg{fill:url(#r);}.ch{fill:url(#ai);}.ci{fill:url(#ax);}.ci,.cj,.bl,.ck,.cl,.bp,.bt{mix-blend-mode:screen;}.ci,.cj,.ck,.cl{opacity:.72;}.cm{fill:url(#y);}.cn{fill:url(#l);}.bw{fill:url(#b`);}.cj{fill:url(#aq);}.co{fill:url(#af);}.bx{fill:url(#v);}.by{fill:url(#as);}.cp{fill:url(#u);}.cq{fill:url(#ah);}.cr{isolation:isolate;}.bl{fill:url(#am);}.cs{fill:url(#a`);}.ck{fill:url(#ay);}.cl{fill:url(#ap);}.bm{fill:url(#q);}.ct{fill:url(#m);}.cu{fill:url(#bh);}.cv{fill:url(#aw);}.cw{fill:#6340a2;}.bo{fill:url(#bc);}.c`{fill:url(#k);}.cx{fill:url(#ba);}.bp{fill:url(#ao);}.cy{fill:url(#bd);}.d`{fill:url(#f);}.da{fill:url(#ae);}.db{fill:url(#g);}.dc{fill:url(#ad);}.dd{fill:url(#ab);}.ca{fill:url(#h);}.de{fill:url(#ak);}.df{fill:url(#au);}.dg{fill:url(#bf);}.dh{fill:url(#i);}.bq{fill:url(#d);}.di{fill:url(#aj);}.dj{fill:#2f95cd;}.dk{fill:url(#e);}.dl{fill:url(#x);}.dm{fill:url(#at);}.br{fill:url(#bb);}.bs{fill:url(#av);}.dn{fill:url(#aa);}.do{fill:url(#s);}.dp{fill:url(#n);}.dq{fill:url(#ac);}.bt{fill:url(#an);}.dr{fill:url(#w);}.ds{fill:url(#al);}.dt{fill:url(#j);}.du{fill:url(#o);}.cb{fill:url(#p);}.dv{fill:url(#ag);}.dw{fill:#dfe3fb;}.bu{fill:url(#bg);}</style><radialGradient id="d" cx="72.53" cy="-779.5" fx="72.53" fy="-779.5" r="30.59" gradientTransform="translate(0 325.42) scale(1 .22)" gradientUnits="userSpaceOnUse"><stop offset="0" stop-color="#be9dea"/><stop offset=".39" stop-color="#e0bff5"/><stop offset="1" stop-color="#fff"/></radialGradient><linearGradient id="e" x1="59.16" y1="141.33" x2="62.54" y2="114.41" gradientTransform="matrix(1, 0, 0, 1, 0, 0)" gradientUnits="userSpaceOnUse"><stop offset="0" stop-color="#cbc1f7"/><stop offset="1" stop-color="#e8dcf7"/></linearGradient><linearGradient id="f" x1="17.57" y1="131.95" x2="23.91" y2="100.07" gradientTransform="matrix(1, 0, 0, 1, 0, 0)" gradientUnits="userSpaceOnUse"><stop offset="0" stop-color="#a242ea"/><stop offset="1" stop-color="#fe117e"/></linearGradient><linearGradient id="g" x1="54.08" y1="119.49" x2="70.14" y2="119.49" gradientTransform="matrix(1, 0, 0, 1, 0, 0)" gradientUnits="userSpaceOnUse"><stop offset="0" stop-color="#8879ea"/><stop offset="1" stop-color="#9e8cef"/></linearGradient><linearGradient id="h" x1="61.88" y1="140.52" x2="61.88" y2="113.45" gradientTransform="matrix(1, 0, 0, 1, 0, 0)" gradientUnits="userSpaceOnUse"><stop offset="0" stop-color="#9d68c2"/><stop offset="1" stop-color="#ccedff"/></linearGradient><linearGradient id="i" x1="48.93" y1="103.62" x2="53.05" y2="70.81" gradientTransform="matrix(1, 0, 0, 1, 0, 0)" gradientUnits="userSpaceOnUse"><stop offset="0" stop-color="#cbc1f7"/><stop offset="1" stop-color="#d4bef1"/></linearGradient><linearGradient id="j" x1="40.43" y1="102.36" x2="39.5" y2="93.21" gradientTransform="matrix(1, 0, 0, 1, 0, 0)" gradientUnits="userSpaceOnUse"><stop offset="0" stop-color="#be9dea"/><stop offset="1" stop-color="#9e8cef"/></linearGradient><linearGradient id="k" x1="51.23" y1="102.46" x2="51.23" y2="72.28" xlink:href="#h"/><linearGradient id="l" x1="47.71" y1="36.4" x2="47.71" y2="17.17" gradientTransform="matrix(1, 0, 0, 1, 0, 0)" gradientUnits="userSpaceOnUse"><stop offset="0" stop-color="#45ffcd"/><stop offset="1" stop-color="#22e0ff"/></linearGradient><linearGradient id="m" x1="53.1" y1="28.31" x2="53.1" y2="11.89" gradientTransform="matrix(1, 0, 0, 1, 0, 0)" gradientUnits="userSpaceOnUse"><stop offset="0" stop-color="#b9acf4"/><stop offset="1" stop-color="#e1d1f5"/></linearGradient><linearGradient id="n" x1="69.57" y1="71.89" x2="77.33" y2="10.11" xlink:href="#e"/><linearGradient id="o" x1="50.78" y1="64.22" x2="101.49" y2="64.22" xlink:href="#g"/><linearGradient id="p" x1="72.89" y1="70.52" x2="72.89" y2="30.18" xlink:href="#h"/><linearGradient id="q" x1="76.14" y1="69.65" x2="76.14" y2="57.92" gradientTransform="matrix(1, 0, 0, 1, 0, 0)" gradientUnits="userSpaceOnUse"><stop offset="0" stop-color="#8da4e5"/><stop offset="1" stop-color="#755cbb"/></linearGradient><linearGradient id="r" x1="102.06" y1="68.44" x2="103.02" y2="60.8" gradientTransform="translate(-33.99 11.46) rotate(-7.63)" gradientUnits="userSpaceOnUse"><stop offset="0" stop-color="#5e36cc"/><stop offset="1" stop-color="#6c4a96"/></linearGradient><linearGradient id="s" x1="63.55" y1="58.62" x2="63.55" y2="11.85" gradientTransform="matrix(1, 0, 0, 1, 0, 0)" gradientUnits="userSpaceOnUse"><stop offset="0" stop-color="#0665bd"/><stop offset="1" stop-color="#1a1f77"/></linearGradient><linearGradient id="t" x1="70.13" y1="125.1" x2="77.48" y2="66.62" xlink:href="#e"/><linearGradient id="u" x1="97.92" y1="40.23" x2="97.92" y2="8.57" xlink:href="#m"/><linearGradient id="v" x1="87.39" y1="114.94" x2="87.39" y2="85.35" xlink:href="#h"/><linearGradient id="w" x1="100.34" y1="39.02" x2="100.34" y2="8.72" xlink:href="#j"/><linearGradient id="x" x1="102.63" y1="39.78" x2="102.63" y2="10.07" xlink:href="#l"/><linearGradient id="y" x1="53.41" y1="106.59" x2="82.09" y2="106.59" xlink:href="#j"/><radialGradient id="a`" cx="68.22" cy="119.58" fx="68.22" fy="119.58" r="21.67" gradientTransform="matrix(1, 0, 0, 1, 0, 0)" gradientUnits="userSpaceOnUse"><stop offset="0" stop-color="#45ffcd"/><stop offset="1" stop-color="#22e0ff"/></radialGradient><linearGradient id="aa" x1="84.41" y1="85.35" x2="91.79" y2="85.35" xlink:href="#g"/><linearGradient id="ab" x1="96.39" y1="116.2" x2="101.93" y2="72.07" xlink:href="#e"/><linearGradient id="ac" x1="82.72" y1="143.83" x2="87.06" y2="109.26" xlink:href="#e"/><linearGradient id="ad" x1="105.52" y1="116.46" x2="105.52" y2="107.97" xlink:href="#j"/><linearGradient id="ae" x1="30.1" y1="110.13" x2="31.91" y2="95.66" xlink:href="#e"/><linearGradient id="af" x1="17.86" y1="130.48" x2="24.65" y2="96.37" gradientTransform="matrix(1, 0, 0, 1, 0, 0)" gradientUnits="userSpaceOnUse"><stop offset="0" stop-color="#d93de3"/><stop offset="1" stop-color="#ff6dba"/></linearGradient><linearGradient id="ag" x1="34.38" y1="101.32" x2="33.98" y2="97.38" xlink:href="#j"/><linearGradient id="ah" x1="30.12" y1="67.94" x2="32.3" y2="50.64" xlink:href="#j"/><linearGradient id="ai" x1="12.46" y1="10.29" x2="12.46" y2="2.39" gradientTransform="translate(23.35 56.39) rotate(5.45)" gradientUnits="userSpaceOnUse"><stop offset="0" stop-color="#dd1a8f"/><stop offset="1" stop-color="#fe117e"/></linearGradient><linearGradient id="aj" x1="62.09" y1="70.86" x2="62.09" y2="67.25" gradientTransform="translate(-36.45 2.49) rotate(-7.8)" xlink:href="#af"/><linearGradient id="ak" x1="47.41" y1="45.83" x2="47.41" y2="31.21" xlink:href="#l"/><linearGradient id="al" x1="73.75" y1="34.47" x2="73.75" y2="30.18" xlink:href="#l"/><linearGradient id="am" x1="44.45" y1="22.25" x2="84.64" y2="22.25" gradientTransform="matrix(1, 0, 0, 1, 0, 0)" gradientUnits="userSpaceOnUse"><stop offset="0" stop-color="#000"/><stop offset="1" stop-color="#6a9bff"/></linearGradient><linearGradient id="an" x1="46.94" y1="54.71" x2="76.39" y2="54.71" xlink:href="#am"/><linearGradient id="ao" x1="40.29" y1="54.71" x2="40.29" y2="35.52" xlink:href="#am"/><linearGradient id="ap" x1="102.06" y1="38.81" x2="102.06" y2="30.13" gradientTransform="matrix(1, 0, 0, 1, 0, 0)" gradientUnits="userSpaceOnUse"><stop offset="0" stop-color="#d4e2ff"/><stop offset="1" stop-color="#000"/></linearGradient><linearGradient id="aq" x1="94.85" y1="15.5" x2="111.85" y2="15.5" gradientTransform="matrix(1, 0, 0, 1, 0, 0)" gradientUnits="userSpaceOnUse"><stop offset="0" stop-color="#000"/><stop offset="1" stop-color="#d4e2ff"/></linearGradient><linearGradient id="ar" x1="74.92" y1="75.93" x2="74.92" y2="66.64" xlink:href="#q"/><linearGradient id="as" x1="100.28" y1="117.19" x2="100.28" y2="70.52" xlink:href="#h"/><linearGradient id="at" x1="161.89" y1="135.11" x2="164.94" y2="110.85" gradientTransform="translate(258.25 -16.83) rotate(174.19) scale(1 -1)" xlink:href="#e"/><linearGradient id="au" x1="167.24" y1="135.45" x2="167.24" y2="113.48" gradientTransform="translate(258.25 -16.83) rotate(174.19) scale(1 -1)" xlink:href="#j"/><linearGradient id="av" x1="167.69" y1="128.65" x2="167.69" y2="120.15" gradientTransform="translate(258.25 -16.83) rotate(174.19) scale(1 -1)" xlink:href="#q"/><linearGradient id="aw" x1="168.26" y1="128.25" x2="170.06" y2="113.9" gradientTransform="translate(258.25 -16.83) rotate(174.19) scale(1 -1)" xlink:href="#e"/><linearGradient id="ax" x1="54.9" y1="96.51" x2="78.69" y2="96.51" xlink:href="#aq"/><linearGradient id="ay" x1="67.88" y1="123.91" x2="67.88" y2="121.17" xlink:href="#ap"/><linearGradient id="b`" x1="88.69" y1="144.83" x2="88.69" y2="109.87" xlink:href="#h"/><linearGradient id="ba" x1="11.03" y1="127.08" x2="17.66" y2="93.74" xlink:href="#f"/><linearGradient id="bb" x1="26.65" y1="102.26" x2="27.25" y2="97.49" xlink:href="#q"/><linearGradient id="bc" x1="-105.78" y1="122.11" x2="-97.32" y2="122.11" gradientTransform="translate(174.54 61.72) rotate(31.78)" xlink:href="#q"/><radialGradient id="bd" cx="-101.92" cy="121.51" fx="-101.92" fy="121.51" r="4.16" gradientTransform="translate(174.54 61.72) rotate(31.78)" xlink:href="#a`"/><linearGradient id="be" x1="31.34" y1="100.41" x2="32.5" y2="91.13" xlink:href="#e"/><linearGradient id="bf" x1="35.29" y1="97.24" x2="34.87" y2="93.15" xlink:href="#j"/><linearGradient id="bg" x1="23.07" y1="114.16" x2="23.77" y2="108.6" xlink:href="#q"/><radialGradient id="bh" cx="24.27" cy="112.06" fx="24.27" fy="112.06" r="2.49" xlink:href="#a`"/><linearGradient id="bi" x1="18.76" y1="132.58" x2="22.69" y2="101.29" xlink:href="#h"/></defs><g class="cr"><g id="a"/><g id="b"><g id="c"><g><g><path class="cc" d="M6.59,71.34c-5.79,19.22,20.06,56.77,58.74,56.23,43.12-.59,77.39-37.54,79.23-68.61,1.84-31.07-29.16-52.92-54.5-47.37-25.34,5.54-34.55,22.64-46.52,33.6-7,6.41-29.31,.79-36.95,26.15Z"/><g><path class="cc" d="M125.39,74.48c-1.18,2.38-1.81,5.03-1.82,7.68,0,.43,.02,.87,.19,1.26,.34,.76,1.19,1.16,2.01,1.26,2.01,.26,4.07-.95,4.99-2.75,.93-1.8,.77-4.06-.2-5.83-.54-.97-1.36-1.85-2.43-2.15-1.07-.3-2.39,.15-2.82,1.17,.16,.32,.7,.33,.87,.02l-.79-.65Z"/><path class="cc" d="M9.96,94.4c-1.18,2.38-1.81,5.03-1.82,7.68,0,.43,.02,.87,.19,1.26,.34,.76,1.19,1.16,2.01,1.26,2.01,.26,4.07-.95,4.99-2.75,.93-1.8,.77-4.06-.2-5.83-.54-.97-1.36-1.85-2.43-2.15-1.07-.3-2.39,.15-2.82,1.17,.16,.32,.7,.33,.87,.02l-.79-.65Z"/><path class="cc" d="M128.38,82.1c-.98,.47-1.68,1.49-1.77,2.57,.9,.61,2.08,.91,3.08,.5,1.01-.41,1.66-1.68,1.18-2.65-.49-.97-2.2-1.02-2.56,0l.08-.43Z"/><path class="cc" d="M125.92,91.52c-.5-.08-1.03,.09-1.39,.44,.14,.18,.29,.35,.49,.46,.2,.11,.47,.12,.64-.03,.23-.2,.18-.57,.11-.87l.22,.13-.07-.13Z"/><path class="cc" d="M126.03,89.52c.02-.15,.08-.3,.18-.41,.25,.3,.18,.75,.08,1.13-.06,.21-.16,.46-.38,.48-.15,.02-.29-.09-.43-.13-.3-.08-.7,.08-.86-.18-.09-.15-.01-.35,.12-.46,.13-.11,.31-.15,.48-.18,.37-.08,.74-.15,1.11-.23l-.29-.02Z"/><path class="bk" d="M122.31,114.81c-.25,.19,.02,.64,.34,.63,.32,0,.56-.27,.77-.51-.29-.33-.79-.45-1.2-.29l.09,.17Z"/><path class="cc" d="M133.25,117.75c.13-.08,.31,0,.38,.14,.07,.13,.05,.3,0,.43-.03,.08-.08,.16-.14,.22-.16,.13-.42,.08-.53-.09s-.05-.42,.12-.53,.42-.06,.55,.09l-.37-.26Z"/><path class="cc" d="M128.96,95.16c-.05-.31-.52-.46-.73-.22,.03,.16,.1,.33,.22,.43,.12,.11,.32,.14,.46,.04,.13-.1,.13-.34-.02-.41l.07,.15Z"/><path class="cc" d="M127,88.31c-.34-.18-.76-.19-1.1-.03,.16,.27,.31,.54,.47,.81,.07,.13,.15,.26,.28,.33,.25,.14,.6-.04,.68-.31,.08-.28-.07-.58-.3-.75l-.02-.06Z"/><path class="bk" d="M131.44,113.79l.14,.28c.17,0,.34-.13,.37-.3,.03-.17-.11-.36-.28-.36-.17,0-.33,.19-.26,.35l.03,.03Z"/><path class="cc" d="M127.93,93.1c.2,.03,.32-.25,.26-.45-.06-.2-.22-.35-.3-.54-.08-.2-.08-.43,.02-.62,.06-.11,.15-.21,.28-.22,.08,0,.16,.04,.23,.08,.35,.2,.69,.46,.89,.82s.21,.84-.06,1.15c-.18,.22-.49,.32-.77,.26-.28-.06-.52-.27-.6-.54l.06,.05Z"/><path class="cc" d="M122.84,91.01c-.23-.1-.53,.05-.63,.29-.1,.24-.01,.52,.16,.72,.07,.09,.2,.16,.3,.1,.07-.04,.09-.13,.1-.2l.17-.94-.09,.03Z"/><path class="cc" d="M122.31,103.09c.52-.06,1,.52,.85,1.03-.41-.02-.84-.04-1.17-.28-.33-.24-.48-.77-.18-1.05l.71-.04-.21,.34Z"/><path class="cc" d="M135.94,.21c-.01-.12,.12-.21,.23-.21,.12,0,.22,.08,.31,.16,.07,.07,.14,.14,.17,.23,.06,.18-.03,.39-.19,.49-.16,.1-.38,.08-.54-.03-.08-.05-.15-.12-.17-.21s.03-.2,.12-.22l.07-.21Z"/><path class="cc" d="M126.97,97.27l-.3,.15c.06,.16,.12,.34,.27,.42,.15,.08,.39-.02,.36-.19-.01-.06-.05-.11-.1-.16l-.41-.46,.16,.25Z"/><path class="cc" d="M127.17,103.15c-.21,.17-.42,.36-.54,.6-.12,.24-.13,.56,.06,.76,.09,.1,.22,.15,.36,.17,.4,.06,.82-.28,.85-.68,.03-.4-.32-.8-.73-.81v-.04Z"/><path class="cc" d="M125.04,105.05l-.16,.53c.12,.07,.26,.12,.4,.13,.17-.21,.12-.56-.11-.72l-.13,.06Z"/><path class="cc" d="M113.78,91.65c-.03,1.06,.19,2.13,.63,3.1,.07,.16,.15,.31,.28,.43,.25,.22,.63,.22,.94,.12,.77-.24,1.32-1.03,1.35-1.84,.03-.81-.4-1.6-1.05-2.08-.36-.26-.81-.44-1.25-.37-.44,.07-.84,.45-.83,.9,.11,.09,.31,0,.32-.14l-.4-.1Z"/><path class="cc" d="M135.14,86.55c-.45,.23-.77,.69-.85,1.19,.22,.05,.45,.11,.67,.07,.22-.04,.45-.19,.49-.41,.07-.3-.2-.57-.44-.76l.25-.03-.13-.06Z"/><path class="cc" d="M135.99,90.09c-.08,.11-.17,.24-.17,.38,0,.14,.09,.25,.17,.36,.22,.3,.42,.62,.58,.96l.45-1.81s.02-.1,.05-.14c.1-.14,.32-.07,.49-.13,.24-.09,.28-.4,.24-.65-.26-1.78-1.37,.41-1.82,1.03Z"/><path class="cc" d="M134.08,83.33c-.38,.06-.72,.3-.9,.64l.86,.37c.14,.06,.28,.12,.42,.1,.29-.04,.46-.39,.36-.66-.1-.27-.4-.43-.69-.42l-.05-.03Z"/><path class="cc" d="M132.36,87.99c-.25,.06-.4,.36-.33,.61,.07,.25,.3,.43,.55,.48,.11,.02,.26,0,.3-.1,.03-.07,0-.15-.04-.22-.14-.28-.28-.57-.43-.85l-.05,.08Z"/><path class="cc" d="M128.39,85.94c-.21,.17-.42,.36-.54,.6-.12,.24-.13,.56,.06,.76,.09,.1,.22,.15,.36,.17,.4,.06,.82-.28,.85-.68,.03-.4-.32-.8-.73-.81v-.04Z"/><path class="cc" d="M121.69,97.86c.07,.26,.41,.34,.68,.36s.6,.05,.73,.29c.04,.07,.05,.15,.02,.22-.08,.17-.34,.09-.53,.09-.15,0-.3,.08-.45,.11-.36,.08-.76-.08-.96-.39-.02-.2,.09-.4,.26-.49,.17-.1,.4-.08,.56,.04l-.31-.22Z"/><path class="cc" d="M125.25,103.64c.07,.26,.41,.34,.68,.36s.6,.05,.73,.29c.04,.07,.05,.15,.02,.22-.08,.17-.34,.09-.53,.09-.15,0-.3,.08-.45,.11-.36,.08-.76-.08-.96-.39-.02-.2,.09-.4,.26-.49,.17-.1,.4-.08,.56,.04l-.31-.22Z"/><path class="cc" d="M123.75,108.48c-.09,.2-.14,.43-.13,.65,0,.04,0,.07,.02,.11,.03,.06,.1,.09,.17,.1,.17,.02,.34-.09,.41-.25s.05-.34-.03-.49c-.05-.08-.12-.15-.21-.17-.09-.02-.2,.02-.23,.11,.01,.03,.06,.03,.07,0l-.07-.05Z"/><path class="cc" d="M129.92,76.77c-.45,.23-.77,.69-.85,1.19,.22,.05,.45,.11,.67,.07,.22-.04,.45-.19,.49-.41,.07-.3-.2-.57-.44-.76l.25-.03-.13-.06Z"/><path class="cc" d="M134.54,77.87c-.23-.22-.69-.06-.72,.26,.12,.11,.27,.2,.44,.22,.16,.01,.35-.08,.39-.24s-.1-.35-.26-.32l.15,.08Z"/><path class="cc" d="M129.71,84.78c-.23-.22-.69-.06-.72,.26,.12,.11,.27,.2,.44,.22,.16,.01,.35-.08,.39-.24,.05-.16-.1-.35-.26-.32l.15,.08Z"/><path class="cc" d="M132.48,76.84c.18-.1,.11-.4-.06-.52-.17-.12-.39-.15-.56-.25-.18-.11-.32-.3-.36-.5-.02-.12,0-.26,.09-.34,.06-.05,.15-.07,.23-.08,.4-.05,.83-.05,1.2,.12,.37,.17,.67,.55,.64,.95-.02,.28-.2,.55-.45,.67-.26,.12-.58,.09-.81-.07h.08Z"/><path class="cc" d="M124.07,99.33c.18-.1,.11-.4-.06-.52-.17-.12-.39-.15-.56-.25-.18-.11-.32-.3-.36-.5-.02-.12,0-.26,.09-.34,.06-.05,.15-.07,.23-.08,.4-.05,.83-.05,1.2,.12,.37,.17,.67,.55,.64,.95-.02,.28-.2,.55-.45,.67-.26,.12-.58,.09-.81-.07h.08Z"/><path class="cc" d="M121.45,98.79c.18-.1,.11-.4-.06-.52-.17-.12-.39-.15-.56-.25-.18-.11-.32-.3-.36-.5-.02-.12,0-.26,.09-.34,.06-.05,.15-.07,.23-.08,.4-.05,.83-.05,1.2,.12,.37,.17,.67,.55,.64,.95-.02,.28-.2,.55-.45,.67s-.58,.09-.81-.07h.08Z"/><path class="cc" d="M123.09,95.01c.18-.1,.11-.4-.06-.52-.17-.12-.39-.15-.56-.25-.18-.11-.32-.3-.36-.5-.02-.12,0-.26,.09-.34,.06-.05,.15-.07,.23-.08,.4-.05,.83-.05,1.2,.12,.37,.17,.67,.55,.64,.95-.02,.28-.2,.55-.45,.67-.26,.12-.58,.09-.81-.07h.08Z"/><path class="cc" d="M146.63,111.74c.18-.1,.11-.4-.06-.52-.17-.12-.39-.15-.56-.25-.18-.11-.32-.3-.36-.5-.02-.12,0-.26,.09-.34,.06-.05,.15-.07,.23-.08,.4-.05,.83-.05,1.2,.12,.37,.17,.67,.55,.64,.95-.02,.28-.2,.55-.45,.67-.26,.12-.58,.09-.81-.07h.08Z"/><path class="cc" d="M134.21,80.75l-.15,.29c.14,.1,.3,.19,.47,.17,.17-.03,.3-.25,.18-.37-.05-.04-.11-.06-.18-.07-.2-.04-.4-.08-.6-.12l.28,.1Z"/><path class="cc" d="M137.15,102.25c-.21,.17-.42,.36-.54,.6-.12,.24-.13,.56,.06,.76,.09,.1,.22,.15,.36,.17,.4,.06,.82-.28,.85-.68s-.32-.8-.73-.81v-.04Z"/><path class="cc" d="M126.05,82.48c.06-.38,.63-.55,.89-.27,.03,.21,0,.43-.06,.63-.24,0-.47-.1-.64-.27l-.2-.1Z"/><path class="bk" d="M134.82,104.8c-.1,.12-.2,.25-.24,.4-.04,.15,0,.33,.12,.42,.21,.15,.5-.03,.75,0,.25,.04,.47,.29,.72,.24,.25-.05,.34-.39,.23-.62-.11-.23-.35-.36-.59-.46-.21-.09-.43-.17-.65-.14s-.44,.21-.44,.44l.11-.29Z"/><path class="cc" d="M126.16,93.87c-1.07-.21-2.23,.19-2.96,1,.36,1.02,1.12,1.97,2.17,2.25,1.05,.28,2.34-.35,2.53-1.41,.19-1.07-1.15-2.13-2.06-1.53l.32-.3Z"/><path class="cc" d="M123.62,81.86c.15,.02,.24,.19,.22,.34-.02,.15-.14,.27-.26,.34-.07,.05-.16,.08-.25,.09-.2,0-.39-.19-.37-.39,.01-.2,.22-.37,.42-.35s.37,.2,.38,.4l-.14-.42Z"/><path class="cc" d="M124.91,87.68c.16,.22,.5,.19,.76,.11,.26-.07,.58-.15,.79,.03,.06,.05,.1,.12,.09,.2-.02,.19-.29,.2-.48,.26-.15,.05-.26,.17-.39,.25-.31,.2-.74,.18-1.03-.05-.08-.18-.05-.4,.08-.55s.35-.21,.54-.14l-.36-.11Z"/><path class="cc" d="M129.86,94.89l-.06,.31c.14,.1,.35,.1,.48-.02,.13-.12,.13-.35,0-.46-.13-.11-.38-.04-.42,.13v.04Z"/><path class="cc" d="M128.32,89.07c.06-.1,.22-.1,.31-.03,.09,.07,.13,.2,.15,.31,.02,.09,.03,.19,0,.29-.06,.18-.26,.3-.45,.28-.19-.02-.35-.17-.42-.35-.03-.09-.04-.19,0-.27,.04-.08,.15-.14,.23-.1l.18-.13Z"/><path class="cc" d="M137.41,88.68c-.67-.85-1.81-1.32-2.89-1.18-.4,1.01-.44,2.23,.17,3.12,.61,.9,1.99,1.27,2.84,.58,.84-.69,.53-2.37-.55-2.51l.44-.02Z"/><path class="cc" d="M132.76,81.54c-.25,.19,.02,.64,.34,.63,.32,0,.56-.27,.77-.51-.29-.33-.79-.45-1.2-.29l.09,.17Z"/><path class="cc" d="M121.69,84.84l-.06,.31c.14,.1,.35,.1,.48-.02,.13-.12,.13-.35,0-.46-.13-.11-.38-.04-.42,.13v.04Z"/><path class="cc" d="M127.1,86.83c-.54,1.02-.85,2.16-.88,3.31,0,.19,0,.38,.07,.55,.14,.33,.5,.52,.86,.57,.87,.14,1.78-.36,2.2-1.13,.42-.77,.39-1.75-.01-2.53-.22-.43-.57-.82-1.03-.96-.46-.14-1.04,.03-1.24,.47,.07,.14,.3,.15,.38,.02l-.34-.29Z"/><path class="cc" d="M143.31,96.72c-.98,.47-1.68,1.49-1.77,2.57,.9,.61,2.08,.91,3.08,.5,1.01-.41,1.66-1.68,1.17-2.65-.49-.97-2.2-1.02-2.56,0l.08-.43Z"/><path class="cc" d="M18.69,112.27c-.98,.47-1.68,1.49-1.77,2.57,.9,.61,2.08,.91,3.08,.5,1.01-.41,1.66-1.68,1.18-2.65-.49-.97-2.2-1.02-2.56,0l.08-.43Z"/><path class="cc" d="M125.68,107.23c-.45,.23-.77,.69-.85,1.19,.22,.05,.45,.11,.67,.07,.22-.04,.45-.19,.49-.41,.07-.3-.2-.57-.44-.76l.25-.03-.13-.06Z"/><path class="cc" d="M126.54,110.78c-.08,.11-.17,.24-.17,.38,0,.14,.09,.25,.17,.36,.22,.3,.42,.62,.58,.96l.45-1.81s.02-.1,.05-.14c.1-.14,.32-.07,.49-.13,.24-.09,.28-.4,.24-.65-.26-1.78-1.37,.41-1.82,1.03Z"/><path class="cc" d="M124.34,88.78l-.16,.52c.36,.08,.78-.02,.96-.34,.18-.32-.07-.82-.43-.77-.22,.03-.56,.16-.59-.06l.22,.65Z"/><path class="cc" d="M130.38,103.28c.02-.15,.08-.3,.18-.41,.25,.3,.18,.75,.08,1.13-.06,.21-.16,.46-.38,.48-.15,.02-.29-.09-.43-.13-.3-.08-.7,.08-.86-.18-.09-.15-.01-.35,.12-.46,.13-.11,.31-.15,.48-.18,.37-.08,.74-.15,1.11-.23l-.29-.02Z"/><path class="cc" d="M136.29,104.11c-.25,.19,.02,.64,.34,.63,.32,0,.56-.27,.77-.51-.29-.33-.79-.45-1.2-.29l.09,.17Z"/><path class="bk" d="M132.01,109.37c.13-.07,.31,0,.38,.14,.07,.13,.05,.3,0,.43-.03,.08-.08,.16-.14,.22-.16,.13-.42,.08-.53-.09-.11-.17-.05-.42,.12-.53,.17-.11,.42-.06,.55,.09l-.37-.26Z"/><path class="cc" d="M130.3,108.33c-.22-.22-.69-.06-.72,.26,.12,.11,.27,.2,.44,.22s.35-.08,.39-.24c.05-.16-.1-.35-.26-.32l.15,.08Z"/><path class="cc" d="M124.63,104.01c-.38,.06-.72,.3-.9,.64,.29,.12,.57,.25,.86,.37,.14,.06,.28,.12,.42,.1,.29-.04,.46-.39,.36-.66-.1-.27-.4-.43-.69-.42l-.05-.03Z"/><path class="bk" d="M136.26,108.05c.19-.1,.45-.08,.62,.06s.25,.38,.19,.59c-.04,.15-.19,.28-.33,.22-.06-.03-.09-.08-.13-.14l-.45-.7,.13-.06-.03,.02Z"/><path class="bk" d="M139.75,110.63c.07,.26,.41,.34,.68,.36,.27,.02,.6,.05,.73,.29,.04,.07,.05,.15,.02,.22-.08,.17-.34,.09-.53,.09-.15,0-.3,.08-.45,.11-.36,.08-.76-.08-.96-.39-.02-.2,.09-.4,.26-.49,.17-.1,.4-.08,.56,.04l-.31-.22Z"/><path class="bk" d="M119.2,96.56c.07,.26,.41,.34,.68,.36s.6,.05,.73,.29c.04,.07,.05,.15,.02,.22-.08,.17-.34,.09-.53,.09-.15,0-.3,.08-.45,.11-.36,.08-.76-.08-.96-.39-.02-.2,.09-.4,.26-.49,.17-.1,.4-.08,.56,.04l-.31-.22Z"/><path class="bk" d="M138.08,112.81l-.16,.27c.1,.14,.3,.21,.46,.14,.16-.07,.24-.29,.15-.44-.09-.15-.34-.16-.44-.02v.04Z"/><path class="cc" d="M128.24,107.29c.18-.1,.11-.4-.06-.52-.17-.12-.39-.15-.56-.25-.18-.11-.32-.3-.36-.5-.02-.12,0-.26,.09-.34,.06-.05,.15-.07,.23-.08,.4-.05,.83-.05,1.2,.12,.37,.17,.67,.55,.64,.95-.02,.28-.2,.55-.45,.67-.26,.12-.58,.09-.81-.07h.08Z"/><path class="cc" d="M122.91,108.67c-.25,.06-.4,.36-.33,.61,.07,.25,.3,.43,.55,.48,.11,.02,.26,0,.3-.1,.03-.07,0-.15-.04-.22-.14-.28-.28-.57-.43-.85l-.05,.08Z"/><path class="cc" d="M134.26,100.13c.52-.06,1,.52,.85,1.03-.41-.02-.84-.04-1.17-.28-.33-.24-.48-.77-.18-1.05,.24-.01,.47-.03,.71-.04l-.21,.34Z"/><path class="bk" d="M129.97,111.21l-.15,.29c.14,.1,.3,.2,.47,.17,.17-.03,.3-.25,.18-.37-.05-.04-.11-.06-.18-.07-.2-.04-.4-.08-.6-.12l.28,.1Z"/><path class="cc" d="M128.58,82.17c-.21,.17-.42,.36-.54,.6-.12,.24-.13,.56,.06,.76,.09,.1,.22,.15,.36,.17,.4,.06,.82-.28,.85-.68,.03-.4-.32-.8-.73-.81v-.04Z"/><path class="cc" d="M139.02,94.35c-.05,.18-.1,.35-.16,.53,.12,.07,.26,.12,.4,.13,.17-.21,.12-.56-.11-.72l-.13,.06Z"/><path class="cc" d="M131.79,68.27c.13-.08,.31,0,.38,.14,.07,.13,.05,.3,0,.43-.03,.08-.08,.16-.14,.22-.16,.13-.42,.08-.53-.09s-.05-.42,.12-.53c.17-.11,.42-.06,.55,.09l-.37-.26Z"/><path class="cc" d="M135.37,97.08l-.16,.53c.12,.07,.26,.12,.4,.13,.17-.21,.12-.56-.11-.72l-.13,.06Z"/><path class="cc" d="M120.77,93.3c-.2,.04-.22,.35-.1,.51,.12,.16,.33,.25,.47,.4,.14,.16,.22,.38,.19,.59-.01,.12-.07,.25-.19,.3-.08,.03-.16,.02-.25,0-.4-.07-.81-.2-1.11-.47-.3-.27-.48-.72-.33-1.1,.1-.26,.35-.47,.63-.51,.28-.04,.58,.08,.75,.3l-.07-.03Z"/><path class="cc" d="M129.85,87.16c.13-.09,.26-.18,.34-.31,.08-.13,.11-.31,.01-.44-.16-.2-.48-.12-.72-.23-.23-.11-.36-.42-.62-.44-.25-.03-.44,.27-.4,.52,.04,.25,.23,.45,.43,.61,.17,.15,.36,.29,.58,.33,.22,.04,.48-.07,.55-.29l-.19,.24Z"/><path class="cc" d="M126.5,98.55c.17-.92,.13-1.88-.13-2.78-.04-.15-.09-.29-.19-.41-.19-.22-.52-.28-.81-.23-.71,.11-1.29,.72-1.43,1.42s.13,1.45,.63,1.96c.28,.28,.64,.5,1.04,.5,.39,0,.8-.28,.85-.67-.09-.09-.27-.04-.3,.08l.33,.14Z"/><path class="cc" d="M120.55,95.27c-.14-.02-.29-.03-.41,.05-.12,.07-.17,.21-.23,.33-.15,.34-.33,.67-.54,.98,.6-.17,1.2-.34,1.8-.51,.05-.01,.1-.03,.15-.02,.17,.02,.22,.25,.35,.36,.19,.16,.49,.04,.69-.11,1.42-1.11-1.03-.99-1.8-1.07Z"/><path class="cc" d="M126.27,98.59l-.18,.26c.09,.15,.28,.24,.45,.18,.16-.06,.26-.27,.18-.42-.08-.15-.33-.19-.44-.05v.04Z"/><path class="cc" d="M121.23,98.15c-.17-.19-.51-.17-.69,.02-.18,.18-.22,.47-.14,.72,.03,.11,.12,.23,.23,.21,.08-.01,.13-.08,.17-.15,.17-.26,.35-.53,.52-.79h-.1Z"/><path class="cc" d="M124.47,99.22c-.43-.27-.98-.33-1.45-.15,.06,.22,.13,.44,.27,.62,.14,.18,.38,.29,.6,.23,.3-.09,.39-.45,.45-.76l.15,.21v-.14Z"/><path class="cc" d="M126.01,100.91c.14-.06,.3-.08,.45-.05-.14,.37-.56,.53-.94,.63-.21,.06-.48,.09-.61-.09-.09-.12-.06-.29-.1-.44-.08-.3-.42-.57-.27-.84,.08-.15,.3-.19,.46-.12,.16,.06,.28,.2,.4,.33,.25,.28,.5,.56,.75,.85l-.13-.26Z"/><path class="cc" d="M122.51,96.28c-.24-.3-.62-.47-1-.46l.11,.93c.02,.15,.04,.3,.12,.42,.17,.23,.57,.21,.75-.02,.18-.22,.17-.56,.02-.81v-.06Z"/><path class="cc" d="M121.46,101.05c.18,.11,.4-.1,.42-.31,.02-.21-.06-.41-.06-.61,0-.21,.1-.42,.26-.56,.09-.08,.23-.14,.34-.09,.08,.03,.13,.1,.18,.16,.24,.33,.45,.7,.49,1.1,.04,.41-.14,.85-.51,1.03-.25,.12-.58,.1-.81-.06-.23-.16-.37-.45-.34-.74l.03,.07Z"/><path class="cc" d="M131.46,92.24c-.25-.09-.52-.19-.79-.17s-.55,.17-.63,.43c-.04,.13-.02,.27,.03,.39,.15,.38,.65,.57,1.01,.4,.37-.17,.53-.68,.34-1.03l.03-.02Z"/><path class="cc" d="M126.13,89.42c-.43-.27-.98-.33-1.45-.15,.06,.22,.13,.44,.27,.62,.14,.18,.38,.29,.6,.23,.3-.09,.39-.45,.45-.76l.15,.21v-.14Z"/><path class="cc" d="M126.29,101.83c.06,.27,.38,.37,.65,.41,.27,.04,.59,.09,.71,.34,.03,.07,.04,.15,0,.22-.1,.17-.35,.06-.54,.05-.15-.01-.3,.05-.45,.08-.36,.06-.75-.13-.93-.45,0-.2,.11-.39,.29-.47s.4-.05,.55,.08l-.29-.25Z"/><path class="cc" d="M136.05,83.09l.02,.32c.16,.07,.37,.02,.46-.13,.09-.15,.04-.37-.11-.45-.16-.08-.38,.05-.38,.22v.04Z"/><path class="cc" d="M124.81,95.11l-.33,.02c-.01,.17-.02,.36,.09,.49,.11,.13,.37,.13,.41-.03,.02-.06,0-.13-.02-.19-.06-.19-.13-.39-.19-.58l.05,.29Z"/></g><g><path class="cf" d="M137.22,56.25c.63-1.7,.87-3.54,.69-5.34-.03-.29-.07-.59-.22-.84-.28-.49-.89-.7-1.45-.71-1.38-.03-2.69,.93-3.19,2.22s-.24,2.81,.55,3.94c.43,.62,1.06,1.16,1.8,1.29,.75,.13,1.61-.27,1.83-.99-.13-.2-.5-.17-.59,.05l.58,.38Z"/><path class="cf" d="M134.66,51.3c.63-.39,1.03-1.13,1.02-1.87-.65-.35-1.47-.47-2.13-.12-.65,.35-1.01,1.26-.61,1.88,.4,.62,1.57,.54,1.74-.18l-.02,.3Z"/><path class="cf" d="M135.66,44.74c.34,.02,.69-.13,.91-.4-.11-.11-.22-.22-.37-.28-.14-.06-.33-.05-.43,.07-.14,.15-.08,.4-.01,.6l-.16-.07,.05,.08Z"/><path class="cf" d="M135.72,46.1c0,.1-.03,.21-.1,.29-.19-.19-.18-.5-.13-.76,.02-.15,.08-.32,.23-.36,.1-.02,.2,.04,.3,.06,.21,.03,.47-.11,.6,.06,.07,.09,.03,.24-.05,.32-.08,.08-.2,.12-.31,.16-.25,.08-.49,.16-.74,.24h.2Z"/><path class="bn" d="M136.46,28.68c.16-.15-.06-.43-.28-.4s-.36,.22-.48,.4c.22,.2,.57,.25,.84,.11l-.08-.11Z"/><path class="cf" d="M128.83,27.46c-.08,.06-.21,.02-.26-.07-.06-.09-.05-.2-.03-.29,.02-.06,.04-.11,.08-.16,.1-.1,.28-.08,.37,.02,.09,.11,.06,.28-.05,.37-.11,.09-.28,.07-.38-.02l.27,.15Z"/><path class="cf" d="M133.34,42.48c.05,.21,.38,.27,.51,.1-.03-.11-.09-.21-.18-.28-.09-.06-.23-.07-.31,0-.08,.08-.06,.24,.04,.28l-.06-.1Z"/><path class="cf" d="M135.15,46.99c.24,.1,.53,.07,.75-.06l-.37-.52c-.06-.08-.12-.17-.21-.21-.18-.08-.4,.07-.44,.26-.04,.19,.09,.39,.26,.49l.02,.04Z"/><path class="bn" d="M130.34,30.02l-.11-.18c-.12,.01-.22,.11-.23,.23,0,.12,.1,.24,.22,.23s.21-.15,.15-.26l-.02-.02Z"/><path class="cf" d="M134.18,43.8c-.14,0-.2,.19-.15,.32s.17,.22,.24,.34c.07,.13,.08,.28,.03,.42-.03,.08-.09,.16-.17,.17-.06,0-.11-.01-.16-.04-.25-.11-.5-.26-.66-.49s-.2-.55-.04-.78c.11-.16,.31-.25,.5-.23,.19,.02,.37,.15,.45,.32l-.04-.03Z"/><path class="cf" d="M137.79,44.86c.17,.05,.36-.07,.41-.24,.05-.17-.03-.36-.16-.47-.06-.05-.15-.09-.21-.05-.04,.03-.05,.09-.05,.14-.02,.22-.03,.43-.05,.65l.06-.03Z"/><path class="cf" d="M137.29,36.63c-.35,.07-.72-.28-.65-.64,.28-.02,.57-.03,.81,.1,.24,.14,.38,.49,.2,.7l-.48,.08,.12-.25Z"/><path class="cf" d="M135.17,64.31c.02,.08-.06,.15-.14,.16-.08,0-.16-.04-.22-.09-.05-.04-.1-.09-.13-.14-.06-.12,0-.27,.1-.35,.11-.08,.25-.08,.37-.02,.06,.03,.11,.07,.13,.13,.02,.06,0,.14-.07,.16l-.03,.15Z"/><path class="cf" d="M134.54,40.91l.19-.12c-.05-.11-.11-.22-.21-.26s-.26,.04-.23,.16c.01,.04,.05,.07,.08,.1l.31,.28-.13-.16Z"/><path class="cf" d="M133.99,36.93c.13-.13,.26-.27,.32-.44,.06-.17,.05-.39-.09-.51-.07-.06-.16-.09-.25-.09-.28,0-.53,.24-.53,.52s.27,.52,.55,.5v.03Z"/><path class="cf" d="M135.3,35.49l.07-.37c-.09-.04-.18-.06-.28-.06-.1,.16-.04,.39,.12,.48l.09-.05Z"/><path class="cf" d="M143.88,43.79c-.05-.72-.28-1.43-.65-2.05-.06-.1-.13-.2-.22-.27-.18-.13-.44-.1-.65-.01-.51,.22-.82,.79-.79,1.34,.03,.55,.38,1.06,.86,1.34,.26,.15,.58,.24,.87,.17,.29-.08,.54-.37,.5-.67-.08-.05-.21,.02-.21,.12l.28,.04Z"/><path class="cf" d="M129.76,48.76c.29-.19,.48-.52,.5-.86-.15-.02-.31-.04-.46,0-.15,.04-.29,.16-.31,.31-.02,.21,.17,.37,.35,.49l-.17,.04,.09,.03Z"/><path class="cf" d="M128.93,46.41c.05-.08,.1-.18,.09-.27-.01-.09-.08-.17-.14-.23-.17-.19-.33-.39-.46-.61-.06,.42-.12,.84-.18,1.26,0,.03,0,.07-.03,.1-.06,.1-.22,.07-.32,.12-.15,.08-.16,.29-.12,.46,.3,1.19,.9-.37,1.16-.83Z"/><path class="cf" d="M130.7,50.87c.25-.07,.47-.26,.56-.5-.2-.06-.41-.13-.61-.19-.1-.03-.2-.06-.29-.04-.19,.04-.28,.3-.2,.47,.09,.18,.3,.26,.5,.23l.04,.02Z"/><path class="cf" d="M131,63.59l-.11-.18c-.12,.01-.22,.11-.23,.23,0,.12,.1,.24,.22,.23,.12,0,.21-.15,.15-.26l-.02-.02Z"/><path class="cf" d="M131.54,47.59c.17-.06,.24-.27,.18-.43-.06-.16-.24-.27-.41-.29-.08,0-.17,.01-.19,.09-.01,.05,.02,.1,.04,.15,.12,.18,.23,.36,.35,.55l.03-.06Z"/><path class="cf" d="M134.37,48.69c.13-.13,.26-.27,.32-.44,.06-.17,.05-.39-.09-.51-.07-.06-.16-.09-.25-.09-.28,0-.53,.24-.53,.52s.27,.52,.55,.5v.03Z"/><path class="cf" d="M138.08,40.13c-.07-.17-.3-.2-.49-.2-.19,0-.41,.01-.52-.14-.03-.04-.05-.1-.03-.14,.04-.12,.23-.08,.36-.1,.1-.01,.2-.07,.3-.11,.24-.08,.52,0,.68,.19,.03,.13-.03,.28-.14,.35-.11,.08-.27,.08-.38,.01l.22,.13Z"/><path class="cf" d="M135.25,36.46c-.07-.17-.3-.2-.49-.2-.19,0-.41,.01-.52-.14-.03-.04-.05-.1-.03-.14,.04-.12,.23-.08,.36-.1,.1-.01,.2-.07,.3-.11,.24-.08,.52,0,.68,.19,.03,.13-.03,.28-.14,.35-.11,.08-.27,.08-.38,.01l.22,.13Z"/><path class="cf" d="M135.93,33.08c.05-.14,.06-.3,.04-.45,0-.02,0-.05-.02-.07-.03-.04-.08-.06-.12-.06-.12,0-.22,.09-.26,.2-.04,.11-.01,.24,.06,.33,.04,.05,.09,.09,.16,.1,.06,0,.13-.03,.15-.09-.01-.02-.04-.01-.05,0l.05,.03Z"/><path class="cf" d="M133.99,55.02c.29-.19,.48-.52,.5-.86-.15-.02-.31-.04-.46,0-.15,.04-.29,.16-.31,.31-.02,.21,.17,.37,.35,.49l-.17,.04,.09,.03Z"/><path class="cf" d="M130.78,54.6c.17,.14,.47-.01,.47-.23-.09-.07-.2-.12-.31-.12-.11,0-.23,.08-.25,.19s.09,.23,.2,.2l-.11-.04Z"/><path class="cf" d="M133.56,49.57c.17,.14,.47-.01,.47-.23-.09-.07-.2-.12-.31-.12s-.23,.08-.25,.19,.09,.23,.2,.2l-.11-.04Z"/><path class="cf" d="M132.25,55.16c-.12,.08-.05,.28,.08,.35,.12,.07,.27,.07,.4,.13,.13,.06,.24,.18,.28,.32,.02,.08,.02,.18-.04,.24-.04,.04-.1,.06-.15,.07-.27,.06-.56,.09-.82,0-.26-.09-.49-.32-.5-.6,0-.19,.1-.39,.26-.49,.16-.1,.38-.1,.55,0h-.05Z"/><path class="cf" d="M136.36,39.31c-.12,.08-.05,.28,.08,.35s.27,.07,.4,.13c.13,.06,.24,.18,.28,.32,.02,.08,.02,.18-.04,.24-.04,.04-.1,.06-.15,.07-.27,.06-.56,.09-.82,0-.26-.09-.49-.32-.5-.6,0-.19,.1-.39,.26-.49,.16-.1,.38-.1,.55,0h-.05Z"/><path class="cf" d="M138.18,39.49c-.12,.08-.05,.28,.08,.35,.12,.07,.27,.07,.4,.13,.13,.06,.24,.18,.28,.32,.02,.08,.02,.18-.04,.24-.04,.04-.1,.06-.15,.07-.27,.06-.56,.09-.82,0-.26-.09-.49-.32-.5-.6,0-.19,.1-.39,.26-.49s.38-.1,.55,0h-.05Z"/><path class="cf" d="M137.33,42.17c-.12,.08-.05,.28,.08,.35,.12,.07,.27,.07,.4,.13,.13,.06,.24,.18,.28,.32,.02,.08,.02,.18-.04,.24-.04,.04-.1,.06-.15,.07-.27,.06-.56,.09-.82,0s-.49-.32-.5-.6c0-.19,.1-.39,.26-.49,.16-.1,.38-.1,.55,0h-.05Z"/><path class="cf" d="M120.18,32.49c-.12,.08-.05,.28,.08,.35,.12,.07,.27,.07,.4,.13,.13,.06,.24,.18,.28,.32,.02,.08,.02,.18-.04,.24-.04,.04-.1,.06-.15,.07-.27,.06-.56,.09-.82,0-.26-.09-.49-.32-.5-.6,0-.19,.1-.39,.26-.49,.16-.1,.38-.1,.55,0h-.05Z"/><path class="cf" d="M130.8,52.62l.08-.21c-.1-.05-.22-.11-.33-.08s-.18,.19-.09,.26c.03,.03,.08,.03,.12,.04l.42,.04-.2-.05Z"/><path class="cf" d="M127.29,38.25c.13-.13,.26-.27,.32-.44s.05-.39-.09-.51c-.07-.06-.16-.09-.25-.09-.28,0-.53,.24-.53,.52,0,.28,.27,.52,.55,.5v.03Z"/><path class="cf" d="M136.21,50.88c-.02,.26-.39,.42-.59,.24-.03-.14-.03-.29,0-.43,.16-.01,.33,.04,.45,.14l.14,.05Z"/><path class="bn" d="M128.68,36.36c.06-.09,.12-.18,.13-.28,.02-.1-.02-.23-.11-.28-.15-.09-.34,.05-.51,.05-.17,0-.34-.16-.5-.11-.16,.05-.2,.29-.11,.43,.09,.15,.27,.22,.43,.27,.15,.05,.3,.09,.45,.05,.15-.04,.28-.17,.27-.33l-.05,.2Z"/><path class="cf" d="M135.33,43.15c.74,.06,1.5-.28,1.94-.89-.31-.67-.9-1.26-1.63-1.37-.73-.11-1.56,.4-1.61,1.14-.05,.74,.93,1.37,1.5,.9l-.19,.22Z"/><path class="cf" d="M137.9,51.13c-.1,0-.18-.11-.17-.21,0-.1,.07-.19,.15-.25,.05-.04,.1-.07,.16-.08,.14-.02,.28,.1,.28,.24,0,.14-.12,.27-.26,.27-.14,0-.27-.11-.29-.25l.13,.28Z"/><path class="cf" d="M136.61,47.27c-.12-.14-.35-.09-.52-.02-.17,.07-.38,.15-.54,.04-.04-.03-.08-.08-.08-.13,0-.13,.19-.15,.3-.21,.09-.05,.16-.13,.24-.2,.2-.16,.49-.17,.7-.04,.07,.11,.06,.27-.02,.38s-.22,.16-.35,.14l.25,.05Z"/><path class="cf" d="M132.75,42.72l.02-.22c-.1-.06-.25-.05-.32,.04-.08,.09-.06,.25,.04,.31,.1,.06,.26,0,.28-.12v-.03Z"/><path class="cf" d="M134.2,46.57c-.03,.07-.14,.08-.21,.04-.07-.04-.1-.12-.12-.2-.02-.06-.03-.13-.02-.19,.03-.13,.15-.22,.28-.22,.13,0,.25,.09,.31,.2,.03,.06,.04,.12,.02,.18-.02,.06-.09,.1-.15,.08l-.11,.1Z"/><path class="cf" d="M128.07,47.47c.52,.53,1.32,.77,2.04,.6,.2-.71,.14-1.54-.34-2.1-.48-.56-1.44-.72-1.96-.19-.52,.52-.19,1.64,.55,1.66l-.29,.04Z"/><path class="cf" d="M131.73,51.99c.16-.15-.06-.43-.28-.4s-.36,.22-.48,.4c.22,.2,.57,.25,.84,.11l-.08-.11Z"/><path class="cf" d="M139,48.97l.02-.22c-.1-.06-.25-.05-.32,.04-.08,.09-.06,.25,.04,.31s.26,0,.28-.12v-.03Z"/><path class="cf" d="M135.19,48c.3-.73,.42-1.52,.37-2.31,0-.13-.02-.26-.08-.37-.12-.22-.38-.31-.62-.33-.6-.03-1.18,.37-1.41,.92-.23,.55-.14,1.21,.19,1.72,.18,.28,.44,.52,.77,.58,.32,.06,.7-.1,.81-.41-.05-.09-.21-.08-.26,.01l.25,.17Z"/><path class="cf" d="M123.49,42.44c.63-.39,1.03-1.13,1.02-1.87-.65-.35-1.47-.47-2.13-.12-.65,.35-1.01,1.26-.61,1.88s1.57,.54,1.74-.18l-.02,.3Z"/><path class="cf" d="M134.71,34.06c.29-.19,.48-.52,.5-.86-.15-.02-.31-.04-.46,0-.15,.04-.29,.16-.31,.31-.02,.21,.17,.37,.35,.49l-.17,.04,.09,.03Z"/><path class="cf" d="M133.88,31.72c.05-.08,.1-.18,.09-.27-.01-.09-.08-.17-.14-.23-.17-.19-.33-.39-.46-.61-.06,.42-.12,.84-.18,1.26,0,.03,0,.07-.03,.1-.06,.1-.22,.07-.32,.12-.15,.08-.16,.29-.12,.46,.3,1.19,.9-.37,1.16-.83Z"/><path class="cf" d="M136.92,46.48c.02-.12,.05-.24,.07-.37-.25-.03-.53,.07-.63,.3-.1,.23,.1,.55,.35,.49,.15-.03,.37-.15,.4,0l-.19-.43Z"/><path class="cf" d="M131.8,37.07c0,.1-.03,.21-.1,.29-.19-.19-.18-.5-.13-.76,.02-.15,.08-.32,.23-.36,.1-.02,.2,.04,.3,.06,.21,.03,.47-.11,.6,.06,.07,.09,.03,.24-.05,.32-.08,.08-.2,.12-.31,.16l-.74,.24h.2Z"/><path class="cf" d="M127.73,36.92c.16-.15-.06-.43-.28-.4-.21,.03-.36,.22-.48,.4,.22,.2,.57,.25,.84,.11l-.08-.11Z"/><path class="bn" d="M130.26,33.06c-.08,.06-.21,.02-.26-.07-.06-.09-.05-.2-.03-.29,.02-.06,.04-.11,.08-.16,.1-.1,.28-.08,.37,.02,.09,.11,.06,.28-.05,.37s-.28,.07-.38-.02l.27,.15Z"/><path class="cf" d="M131.5,33.64c.17,.14,.47-.01,.47-.23-.09-.07-.2-.12-.31-.12s-.23,.08-.25,.19,.09,.23,.2,.2l-.11-.04Z"/><path class="cf" d="M135.65,36.17c.25-.07,.47-.26,.56-.5-.2-.06-.41-.13-.61-.19-.1-.03-.2-.06-.29-.04-.19,.04-.28,.3-.2,.47,.09,.18,.3,.26,.5,.23l.04,.02Z"/><path class="bn" d="M127.47,34.25c-.12,.08-.3,.08-.43,0-.13-.08-.2-.24-.17-.39,.02-.1,.11-.21,.21-.17,.04,.01,.07,.05,.1,.08l.35,.45-.09,.05,.02-.02Z"/><path class="bn" d="M124.92,32.75c-.07-.17-.3-.2-.49-.2-.19,0-.41,.01-.52-.14-.03-.04-.05-.1-.03-.14,.04-.12,.23-.08,.36-.1,.1-.01,.2-.07,.3-.11,.24-.08,.52,0,.68,.19,.03,.13-.03,.28-.14,.35-.11,.08-.27,.08-.38,.01l.22,.13Z"/><path class="bn" d="M139.86,40.84c-.07-.17-.3-.2-.49-.2-.19,0-.41,.01-.52-.14-.03-.04-.05-.1-.03-.14,.04-.12,.23-.08,.36-.1,.1-.01,.2-.07,.3-.11,.24-.08,.52,0,.68,.19,.03,.13-.03,.28-.14,.35-.11,.08-.27,.08-.38,.01l.22,.13Z"/><path class="bn" d="M125.91,31.15l.09-.2c-.08-.09-.22-.12-.32-.07-.1,.06-.14,.21-.07,.31,.07,.09,.24,.09,.3-.02v-.03Z"/><path class="cf" d="M132.97,34.2c-.12,.08-.05,.28,.08,.35,.12,.07,.27,.07,.4,.13,.13,.06,.24,.18,.28,.32,.02,.08,.02,.18-.04,.24-.04,.04-.1,.06-.15,.07-.27,.06-.56,.09-.82,0-.26-.09-.49-.32-.5-.6,0-.19,.1-.39,.26-.49,.16-.1,.38-.1,.55,0h-.05Z"/><path class="cf" d="M136.49,32.89c.17-.06,.24-.27,.18-.43-.06-.16-.23-.27-.41-.29-.08,0-.17,.01-.19,.09-.01,.05,.02,.1,.04,.15,.12,.18,.23,.36,.35,.55l.03-.06Z"/><path class="cf" d="M129.39,39.48c-.35,.07-.72-.28-.65-.64,.28-.02,.57-.03,.81,.1,.24,.14,.38,.49,.2,.7-.16,.03-.32,.05-.48,.08l.12-.25Z"/><path class="bn" d="M131.52,31.67l.08-.21c-.1-.05-.22-.11-.33-.08s-.18,.19-.09,.26c.03,.03,.08,.03,.12,.04l.42,.04-.2-.05Z"/><path class="cf" d="M134.52,51.27c.13-.13,.26-.27,.32-.44s.05-.39-.09-.51c-.07-.06-.16-.09-.25-.09-.28,0-.53,.24-.53,.52,0,.28,.27,.52,.55,.5v.03Z"/><path class="cf" d="M126.57,43.74l.07-.37c-.09-.04-.18-.06-.28-.06-.1,.16-.04,.39,.12,.48l.09-.05Z"/><path class="cf" d="M133.32,60.92c-.08,.06-.21,.02-.26-.07-.06-.08-.05-.2-.03-.29,.02-.06,.04-.11,.08-.16,.1-.1,.28-.08,.37,.02,.09,.11,.06,.28-.05,.37s-.28,.07-.38-.02l.27,.15Z"/><path class="cf" d="M128.85,41.63l.07-.37c-.09-.04-.18-.06-.28-.06-.1,.16-.04,.39,.12,.48l.09-.05Z"/><path class="cf" d="M139.03,43.16c.13-.04,.13-.25,.03-.35s-.24-.15-.34-.24c-.11-.1-.17-.24-.17-.38,0-.08,.03-.18,.11-.22,.05-.03,.11-.02,.17-.02,.28,.02,.56,.08,.79,.24,.22,.16,.37,.45,.3,.72-.05,.19-.21,.34-.39,.39-.19,.05-.4-.01-.53-.15l.05,.02Z"/><path class="cf" d="M133.3,47.97c-.08,.07-.16,.14-.21,.23-.05,.09-.05,.22,.02,.3,.12,.13,.34,.05,.5,.1,.16,.06,.27,.26,.45,.26,.17,0,.28-.22,.23-.38-.05-.17-.19-.29-.33-.38-.13-.09-.27-.17-.42-.18-.15,0-.32,.08-.35,.23l.11-.18Z"/><path class="cf" d="M134.77,40c-.05,.64,.05,1.29,.28,1.88,.04,.1,.08,.19,.16,.26,.14,.14,.37,.15,.56,.1,.47-.12,.82-.58,.87-1.06,.05-.49-.19-.98-.57-1.29-.21-.17-.47-.29-.74-.26-.27,.03-.52,.25-.53,.51,.06,.06,.19,.01,.2-.07l-.23-.07Z"/><path class="cf" d="M139.04,41.81c.1,0,.2,0,.28-.06,.07-.06,.1-.15,.13-.24,.08-.24,.18-.48,.3-.7-.39,.16-.79,.32-1.18,.47-.03,.01-.06,.03-.1,.02-.12,0-.17-.15-.27-.22-.14-.1-.33,0-.46,.13-.88,.85,.77,.6,1.3,.6Z"/><path class="cf" d="M134.92,39.97l.1-.19c-.07-.1-.21-.14-.31-.09-.11,.05-.16,.2-.09,.3,.07,.1,.24,.1,.3,0v-.03Z"/><path class="cf" d="M138.37,39.9c.13,.12,.36,.08,.47-.06s.12-.34,.04-.5c-.03-.07-.1-.14-.17-.13-.05,.01-.08,.06-.11,.11l-.3,.57h.07Z"/><path class="cf" d="M136.1,39.41c.31,.15,.69,.15,1,0-.06-.14-.12-.29-.23-.4-.11-.11-.28-.17-.42-.11-.19,.08-.23,.34-.25,.55l-.12-.13,.02,.1Z"/><path class="cf" d="M134.94,38.37c-.09,.05-.2,.07-.3,.06,.07-.26,.34-.4,.6-.49,.14-.05,.32-.09,.42,.02,.07,.08,.06,.19,.1,.29,.07,.19,.33,.36,.24,.55-.05,.11-.19,.15-.3,.12-.11-.03-.21-.11-.29-.19-.19-.17-.38-.35-.57-.52l.11,.17Z"/><path class="cf" d="M137.63,41.26c.18,.18,.45,.28,.71,.24l-.14-.62c-.02-.1-.05-.2-.11-.27-.13-.14-.4-.1-.51,.06-.11,.16-.08,.39,.04,.55v.04Z"/><path class="cf" d="M138.01,37.95c-.13-.06-.26,.1-.26,.24,0,.14,.07,.27,.09,.41,.01,.14-.04,.29-.14,.4-.06,.06-.14,.11-.23,.09-.05-.01-.1-.06-.14-.1-.19-.2-.36-.44-.41-.71-.05-.27,.04-.59,.27-.73,.16-.1,.38-.11,.55-.02,.17,.09,.28,.28,.28,.47l-.02-.05Z"/><path class="cf" d="M131.85,44.64c.18,.05,.36,.09,.55,.06,.18-.03,.36-.15,.4-.34,.02-.09,0-.18-.05-.27-.13-.24-.48-.34-.72-.2s-.31,.5-.16,.73h-.02Z"/><path class="cf" d="M135.66,46.18c.31,.15,.69,.15,1,0-.06-.14-.12-.29-.23-.4-.11-.11-.28-.17-.42-.11-.19,.08-.23,.34-.25,.55l-.12-.13,.02,.1Z"/><path class="cf" d="M134.68,37.77c-.06-.18-.28-.22-.47-.23-.19,0-.41-.02-.51-.18-.03-.04-.04-.1-.02-.15,.05-.12,.23-.07,.36-.07,.1,0,.2-.06,.3-.09,.24-.07,.52,.04,.66,.24,.02,.13-.05,.27-.16,.34-.11,.07-.27,.06-.38-.02l.21,.15Z"/><path class="cf" d="M129.38,51.17l-.03-.21c-.11-.04-.25,.01-.3,.12-.05,.11,0,.25,.11,.29,.11,.04,.25-.06,.24-.18v-.02Z"/><path class="cf" d="M136.15,42.22l.22-.04c0-.12-.01-.24-.09-.33-.08-.08-.26-.06-.28,.05,0,.04,.01,.09,.03,.13l.17,.38-.06-.2Z"/></g></g><ellipse class="bq" cx="72.53" cy="151.98" rx="30.59" ry="6.81"/><g><path class="dk" d="M69.98,123.91c-.27,3.28-5.46,13.77-9.53,16.62t0,.01c-.79,.54-1.53,.81-2.18,.68-2.92-.56-4.33-14.57-4.47-22.46-.05-3.05,.09-5.17,.41-5.26,2.66-.7,16.09,6.51,15.78,10.41Z"/><path class="d`" d="M42.1,103.69l-.04,.04c-9.71,11.21-17.94,29.53-17.94,29.53L0,125.21l5.3-2.71,36.8-18.81Z"/><path class="db" d="M69.97,124.97s-3.59,1.95-9.2-.86c-4.39-2.2-7.31-9.35-6.57-10.62,.74-1.27,17.8,6.4,15.78,11.48Z"/><path class="ca" d="M69.98,123.91c-.27,3.28-5.46,13.77-9.53,16.62,3.05-3.51,3.16-10.67,1.21-13.95-1.47-2.49-5.83-6.18-7.87-7.82-.05-3.05,.09-5.17,.41-5.26,2.66-.7,16.09,6.51,15.78,10.41Z"/><path class="dh" d="M58.65,94.04s-15.43,8.75-19.06,8.4c-3.63-.35-2.02-8.6-2.02-8.6,.48-.57,1.02-1.16,1.6-1.76h0c5.8-6.13,15.7-13.93,21.39-17.65h0c2.39-1.57,4.04-2.41,4.32-2.1,2.11,2.34-6.24,21.7-6.24,21.7Z"/><path class="dt" d="M37.58,93.84s2.01-1.69,4.51,.58c2.5,2.28-.08,7.74-2.5,8.02-2.42,.27-3.87-5.06-2.01-8.6Z"/><path class="c`" d="M58.65,94.04s-15.43,8.75-19.06,8.4c-3.63-.35-2.02-8.6-2.02-8.6,.48-.57,1.02-1.16,1.6-1.76h0s3.77,2.22,10.72,1.16c6.96-1.06,10.67-18.8,10.67-18.8h0c2.39-1.57,4.04-2.41,4.32-2.1,2.11,2.34-6.24,21.7-6.24,21.7Z"/><path class="cn" d="M47.91,17.17s-5.21,5.5-5.79,15.65c-.58,10.15,11.18-4.51,11.18-4.51l-5.4-11.13Z"/><path class="ct" d="M44.54,28.31s2.36-12.51,6.24-15.17c3.88-2.66,10.88-.25,10.88-.25l-17.12,15.42Z"/><path class="dp" d="M104.49,57.56c-8.82,13.86-52.48,16.06-59.98,9.14-2.99-2.76-4.9-6.39-5.84-10.49h0c-4.03-17.56,9.61-43.64,32.24-46.2,15.33-1.72,28.15,10.96,33.5,24.49,3.35,8.46,3.78,17.25,.09,23.06Z"/><path class="du" d="M95.94,64.23c-5.38,2.36-13.5,4.6-18.96,5.32-10.14,1.35-17.6,1.19-21.9,.1h0c-2.83-.72-4.3-1.82-4.28-3.17,0-.82,1.9-1.79,4.96-2.78,8.98-2.9,27.96-5.95,38.44-5.77,.9,.02,1.74,.06,2.5,.12,.17,.01,.32,.03,.48,.05,.03,0,.06,0,.09,0,1.83,.2,3.16,.56,3.8,1.14,.17,.14,.28,.3,.36,.46,.56,1.27-1.82,2.92-5.47,4.52Z"/><path class="cb" d="M104.49,57.56c-8.82,13.86-52.48,16.06-59.98,9.14-2.99-2.76-4.9-6.39-5.84-10.49h0s3.65,5.24,12.56,5.14c8.9-.11,34.3-4.81,38.97-9.34,4.67-4.53,.33-21.83,.33-21.83l13.87,4.32c3.35,8.46,3.78,17.25,.09,23.06Z"/><path class="bm" d="M95.94,64.23c-4.62-1.32-18.05-4.53-27.96-.87-12.17,4.49-12.9,6.29-12.9,6.29h0c-2.83-.72-4.3-1.82-4.28-3.17,0-.82,1.9-1.79,4.96-2.78,8.98-2.9,27.96-5.95,38.44-5.77,1.1,.05,2.1,.11,2.98,.17,.03,0,.06,0,.09,0,1.83,.2,3.16,.56,3.8,1.14,.17,.14,.28,.3,.36,.46,.56,1.27-1.82,2.92-5.47,4.52Z"/><path class="cg" d="M96.69,58.05c-2.09,2.61-13.31,6.13-19.87,7-11.74,1.55-19.12,.66-21.08-1.35,9.75-3.15,31.31-6.48,40.94-5.65Z"/><path class="dw" d="M38.67,57.03c2.55,5.11,40.05,2.08,48.33-8.54,8.28-10.62-4.84-40.61-24.16-35.14-18.42,5.21-28.78,34.43-24.16,43.68Z"/><path class="do" d="M38.67,56.2c2.55,5.11,40.05,2.08,48.33-8.54,8.28-10.62-4.84-40.61-24.16-35.14-18.42,5.21-28.78,34.43-24.16,43.68Z"/><path class="ce" d="M91.84,107.95c-2.64,12.03-9.53,17.19-21.87,17.03-12.09-.17-19.52-13.27-15.62-28.66,2.49-9.82,5.39-18.54,10.54-23.96h0v-.02c2.92-3.07,6.55-5.07,11.25-5.63,3.7-.44,6.78,1.55,9.22,4.93,6.37,8.81,8.51,27.04,6.48,36.31Z"/><path class="cp" d="M88.87,15.17s-2.03,18.48,9.37,25.02c0,0,5.6,.6,8.85-2.79,0,0-5.07,4.76-10.41-.2s-4.06-18.63,0-23.08c4.06-4.45,9.92-3.28,9.92-3.28l-2.34-2.11s-8.63-1.76-15.39,6.44Z"/><path class="bx" d="M85.36,85.35s1.29,9.38,1.29,15.64c0,7.42-4.56,13.94-4.56,13.94l9.26-4.97s1.73-4.85,1.29-9.82c-.44-4.97-.84-7.24-.84-7.24l-6.43-7.56Z"/><path class="dr" d="M104.26,8.73s-6.34-.59-10.78,6.78c-4.71,7.82-1.29,21.33,4.43,23.39,5.72,2.05,11.5-19.81,11.5-19.81l-3.32-8.7s-.66-1.22-1.83-1.65Z"/><path class="dl" d="M112.46,27.36c-.82,4.22-2.53,7.67-4.83,9.86h-.02l-.64,.58h0c-1.86,1.51-4.06,2.22-6.44,1.92-7.72-.98-8.76-12.17-7.85-18.5,1.06-7.32,7.32-11.72,12.3-11.07,5.93,.77,9.09,8.96,7.49,17.23Z"/><path class="cm" d="M53.73,98.3s2.81-9.09,11.5-9.09c10.42,0,17.44,11.51,16.81,19.32-.62,7.81-3.01,15.13-12.85,15.44,0,0-18.43-.41-15.46-25.67Z"/><path class="cs" d="M53.73,99.31s2.81-9.09,11.5-9.09c10.42,0,17.44,11.51,16.81,19.32-.62,7.81-3.01,15.13-12.85,15.44,0,0-18.43-.41-15.46-25.67Z"/><path class="dn" d="M90.28,95.45c-.45,0-.93-.38-1.42-1.03-2.18-2.91-4.48-11.3-4.45-15.96,.01-1.81,.37-3.05,1.22-3.2,1.39-.24,4.22,4.45,5.59,11.05,.79,3.84,.99,9.14-.94,9.14Z"/><path class="cw" d="M88.86,94.43c-2.18-2.91-4.48-11.3-4.45-15.96,1.37,1.77,2.97,5.37,3.9,9.86,.41,1.95,.66,4.28,.55,6.1Z"/><path class="dd" d="M110.9,112.79c-1.41,4.53-6.72,5-8.27,3.91-1.35-.95-5.09-5.34-8.67-13.38,0,0,0-.01-.01-.02-.53-1.18-1.04-2.44-1.56-3.78-3.99-10.47-6.99-29.75-2.86-29,0,0,0,0,.02,0,11.97,2.19,22.76,37.74,21.36,42.27Z"/><path class="dq" d="M91.49,144.68c-.82,.4-1.95-.02-3.25-.97-1.41-1.04-3.01-2.73-4.6-4.69h-.01l-.02-.03c-4.43-5.45-8.74-13.01-8.53-14.71,.76-5.86,8.72-10.95,13.45-13.19,1.85-.88,3.2-1.32,3.44-1.21,.85,.41,3.73,32.75-.49,34.8Z"/><path class="dc" d="M100.02,113.88s.07-4.17,3.76-5.64c3.69-1.47,7.25,3.45,7.25,3.45,0,0,.03,4.69-4.96,4.76-5,.08-6.04-2.58-6.04-2.58Z"/><path class="da" d="M41.47,99.05s-3.05,4.8-6.33,7.15c-3.28,2.34-9.72,3.35-9.72,3.35,0,0-4.57-2.11-4.57-5.25,0,0,4.92-2.5,6.79-6.45,0,0,6.39-2.28,9.17-1.53,2.78,.74,4.65,2.73,4.65,2.73Z"/><path class="co" d="M42.1,103.69l-.04,.04c-.75,.81-12.85,13.92-18.52,27.89L0,125.21s3.21-6.83,9.55-14.91c.01-.01,.02-.02,.02-.02h0c3.64-4.64,8.3-9.69,13.97-14.11,0,0,9.42,1.43,18.56,7.52Z"/><polygon class="dv" points="32.29 97.55 37.51 101 30.89 98.14 32.29 97.55"/><path class="cq" d="M37.51,51.29s-5.07,2.22-9.28,7.3c-4.22,5.07-4.57,10.35,1.52,8.71l2.54-2.23s-3.59,1.23-3.83-2.62c-.23-3.85,9.05-10.44,9.05-10.44v-.71Z"/><path class="ch" d="M28.07,64.43c-1.49,2.24,2.46,3.26,5.59,3.17,3.51-.1,9.57-1.65,8.72-5.09-.85-3.43-10.81-3.34-14.31,1.91Z"/><path class="di" d="M28.36,64.77c-.03,.58,12.35-.97,12.34-3.19s-12.13-1.33-12.34,3.19Z"/><path class="de" d="M43.11,44.13c.88,2.89,6.85,2.1,8.43-2.42,1.58-4.52-.11-10.26-3.16-10.49-3.05-.23-7.02,7.2-5.27,12.91Z"/><path class="ds" d="M67.24,34.44c-.19,.41,4.26-3.85,12.96-2.26,.86,.16-9.14-5.86-12.96,2.26Z"/><path class="dj" d="M58.49,50.24s8.36-2.19,12.03-8.82c0,0-1.41,8.98-12.03,8.82Z"/><path class="bl" d="M44.54,31.69c1.08,1.1,7.34-3.86,15.14-4.56,7.8-.7,17.63,5.19,23.72,3.05,4.84-1.7-5.18-18.34-18.17-17.49-12.99,.85-21.76,17.91-20.69,19Z"/><path class="bt" d="M46.94,56.29s7.56-3.65,17.61-4.45c10.05-.8,11.84-.06,11.84,.9s-6.79,4.24-16.01,5.02-13.44-1.47-13.44-1.47Z"/><path class="bp" d="M38.67,54.71s-2.35-6.74,2.02-17.76c0,0,1.05-1.8,1.77-1.36,.72,.44-4.17,8.76-3.79,19.12Z"/><path class="cl" d="M93.92,30.13s.82,6.86,5.86,8.34c5.04,1.48,9.14-2.16,10.43-7.31,0,0-1.58,4.44-8.14,3.3-6.56-1.14-8.14-4.34-8.14-4.34Z"/><path class="cj" d="M94.85,17.17c.06,1.28,9.31-1.38,12.25-.99,2.94,.39,4.19,4,4.66,3.91s-.78-8.52-6.25-9.15c-5.47-.62-10.7,5.33-10.66,6.22Z"/><path class="bj" d="M85.36,71.64s-12.74,4.8-17.62,4.25c-4.74-.53-2.96-3.38-2.86-3.54h0v-.02c2.92-3.07,6.55-5.07,11.25-5.63,3.7-.44,6.78,1.55,9.22,4.93Z"/><path class="by" d="M110.9,112.79c-1.41,4.53-6.72,5-8.27,3.91-1.35-.95-5.09-5.34-8.67-13.38,.35,.68,2.97,5.57,5.32,5.57,2.53,0,7.4-7.03,2.47-21.76-4.77-14.28-11.78-16.48-12.21-16.61,11.97,2.19,22.76,37.74,21.36,42.27Z"/><path class="dm" d="M104.47,110.38c2.1-.56,5.4,1.11,6.55,2.81,1.15,1.69,4.02,8.82,2.38,18.04,0,0-3.12,4.14-6.64,3.23-2.67-.69-3.3-8.63-4.02-14.27-.72-5.64-1.71-8.87,1.74-9.8Z"/><path class="df" d="M107.27,134.69s1.29-18.47-6.22-21.45c0,0-.04,3,1.46,9.94,1.5,6.94,3.03,11.09,4.76,11.52Z"/><path class="bs" d="M106.76,124.57s-1.56,2.87-2.77,3.43c-1.21,.57-2.23,.2-2.23,.2l3.79-8.71s1.17,3.19,1.21,5.08Z"/><path class="cv" d="M105.55,119.49s-1.53-4.92-4.69-5.84c0,0-2.54,3.07-.72,13.81,0,0,1.79,1.92,3.8-.39,0,0,1.49-3.88,1.62-7.58Z"/><path class="cf" d="M103.63,117.9c1.03-.11-.07,4.62-.62,4.57-.55-.05-.24-4.48,.62-4.57Z"/><path class="ci" d="M54.94,98.58c1.31,2.5,6.2-.7,12.29,0,6.1,.7,9.38,3.93,11.14,3.05,1.76-.88-3.76-10-13.14-10.37-7.48-.29-10.74,6.47-10.29,7.32Z"/><path class="ck" d="M61.66,121.17s2.56,2.59,6.79,2.74c4.24,.15,5.64-1.9,5.64-1.9,0,0-1.87-.82-4.86-.23-2.99,.59-5.71,.19-7.57-.61Z"/><path class="bw" d="M91.49,144.68c-.82,.4-1.95-.02-3.25-.97l-4.6-4.69c.45,.41,5.58,4.87,6.55-4.44,1.02-9.73-2.1-22.88-2.1-22.88l.45-.62c1.85-.88,3.2-1.32,3.44-1.21,.85,.41,3.73,32.75-.49,34.8Z"/><path class="cf" d="M91.79,87.37c-1.81,1.07,1.93,8.61,2.81,8.8,.88,.19-1.57-9.52-2.81-8.8Z"/><path class="cf" d="M95.13,97.41c-.38,.04,.04,1.8,.32,2.04,.28,.24,.88,.28,1.04,.12,.17-.17-.93-2.21-1.37-2.16Z"/><path class="cf" d="M77.18,79.09c-.74,.02-2.03,7.22-1.44,7.46,.59,.24,1.4-1.29,1.98-3.65,.59-2.36,.17-3.83-.54-3.81Z"/><path class="cf" d="M44.69,88.03c.16,.53,3.8-1.11,3.81-2.68,.01-1.57-4.04,1.92-3.81,2.68Z"/><path class="cf" d="M80.12,123.98c-1.61,.36,.72,4.29,1.09,4.44,.37,.15,.67-1.51,.38-2.69-.25-1.06-.91-1.87-1.47-1.75Z"/><path class="cf" d="M58.02,127.08c-.9-.2-.66,2.33-.51,2.5,.15,.16,.7-.6,.84-1.26,.13-.59,0-1.16-.32-1.23Z"/><path class="cf" d="M81.58,128.89c-.3,.24,.42,1.47,.68,1.21,.26-.26,.2-.89,.03-1.1s-.57-.22-.71-.11Z"/><path class="cx" d="M25.16,95.23s.85,11-1.18,17.48c0,0-16.04,6.02-23.52,12.27l24.38-12.03s1.66-10.99,.32-17.72Z"/><path class="br" d="M19.99,99.12s1.84,3.13,7.19,3.09c5.35-.04,6.88-2.7,6.88-2.7l-3.17-1.36-8.32-1.24s-2.41,2.07-2.58,2.22Z"/><path class="bo" d="M19.33,112.11c.02,1.92,2.94,4.78,5.8,3.98,3.57-1,3.86-6.12,1.78-6.98-2.08-.87-2.64,.42-3.74,.48s-3.87,.17-3.84,2.52Z"/><path class="cy" d="M19.33,111.41c.02,1.92,2.94,4.78,5.8,3.98,3.57-1,3.86-6.12,1.78-6.98-2.08-.87-2.64,.42-3.74,.48s-3.87,.17-3.84,2.52Z"/><path class="cd" d="M39.56,94.92s-3.28-3.45-6.03-3.66c-2.75-.21-9.74,2.81-11.86,6.75,0,0,.32,.94,2.72,1.51,2.4,.56,7.9-1.98,7.9-1.98l9.18,1.55s0-2.05-1.91-4.18Z"/><path class="dg" d="M32.29,97.55s4.43-1.34,4.93-4.64l.7,.54s-.63,3.42-5.63,4.1Z"/><path class="cf" d="M24.48,96.16c.05,.69,4.92-1.57,4.92-2.39s-5,1.22-4.92,2.39Z"/><path class="bu" d="M24.01,114.27c-.33-.02-.63-.07-.9-.16-1.06-.29-1.74-.96-2.44-1.71-.88-.93-1.12-1.68-.38-2.29,1.14-.95,3.92-1.13,4.86-1.28,.66-.1,1.07,.2,1.4,1.01,.14,.33,.26,.76,.38,1.27,.41,1.76-1.32,3.28-2.93,3.16Z"/><path class="cu" d="M24.01,114.27c-.33-.02-.63-.07-.9-.16-.26-.22-.5-.48-.75-.74-.88-.94-1.13-1.68-.38-2.3,1.04-.87,3.46-1.09,4.58-1.24,.14,.33,.26,.76,.38,1.27,.41,1.76-1.32,3.28-2.93,3.16Z"/><path class="bv" d="M42.07,103.72c-9.71,11.21-17.94,29.53-17.94,29.53L0,125.21s3.21-6.83,9.55-14.91c-.37,.59-5.9,9.33-7.2,11.83l2.96,.37,19.7,2.49s10.08-14.67,17.06-21.26Z"/></g></g></g></g></g></svg>